<?xml version="1.0" encoding="UTF-8" standalone="no"?>
<!-- Created with Inkscape (http://www.inkscape.org/) -->

<svg
   version="1.1"
   id="svg42670"
   width="1600"
   height="1600"
   viewBox="0 0 1600 1600"
   sodipodi:docname="deep-hole-vector-pdv.svg"
   inkscape:version="1.2 (dc2aedaf03, 2022-05-15)"
   xmlns:inkscape="http://www.inkscape.org/namespaces/inkscape"
   xmlns:sodipodi="http://sodipodi.sourceforge.net/DTD/sodipodi-0.dtd"
   xmlns="http://www.w3.org/2000/svg"
   xmlns:svg="http://www.w3.org/2000/svg">
  <defs
     id="defs42674">
    <clipPath
       clipPathUnits="userSpaceOnUse"
       id="clipPath42690">
      <path
         d="M 0,1200 H 1200 V 0 H 0 Z"
         id="path42688" />
    </clipPath>
  </defs>
  <sodipodi:namedview
     id="namedview42672"
     pagecolor="#ffffff"
     bordercolor="#000000"
     borderopacity="0.25"
     inkscape:showpageshadow="2"
     inkscape:pageopacity="0.0"
     inkscape:pagecheckerboard="0"
     inkscape:deskcolor="#d1d1d1"
     showgrid="false"
     inkscape:zoom="0.523125"
     inkscape:cx="800"
     inkscape:cy="800.95579"
     inkscape:window-width="1920"
     inkscape:window-height="1017"
     inkscape:window-x="-8"
     inkscape:window-y="-8"
     inkscape:window-maximized="1"
     inkscape:current-layer="g42678">
    <inkscape:page
       x="0"
       y="0"
       id="page42676"
       width="1600"
       height="1600" />
  </sodipodi:namedview>
  <g
     id="g42678"
     inkscape:groupmode="layer"
     inkscape:label="Page 1"
     transform="matrix(1.3333333,0,0,-1.3333333,0,1600)">
    <g
       id="g42680"
       transform="translate(3.2238,1196.2476)">
      <path
         d="M 0,0 -0.001,-1196.248 H 1196.776 V 0 Z"
         style="fill:#4adce6;fill-opacity:1;fill-rule:nonzero;stroke:none"
         id="path42682" />
    </g>
    <g
       id="g42684">
      <g
         id="g42686"
         clip-path="url(#clipPath42690)">
        <g
           id="g42692"
           transform="translate(3.2231,967.3906)">
          <path
             d="m 0,0 c 30.597,28.685 67.332,50.205 109.722,61.093 31.831,8.172 57.013,23.524 78.86,48.074 66.23,74.43 159.953,110.656 256.205,96.876 38.998,-5.583 75.146,2.144 107.091,22.813 h 380.894 c 38.855,-29.634 73.975,-65.992 104.308,-104.668 11.504,-14.671 21.405,-30.505 29.55,-47.213 18.232,-37.393 46.573,-63.388 85.394,-78.331 16.19,-6.231 31.724,-13.724 46.487,-22.452 v -579.098 c -11.719,-8.514 -24.039,-16.213 -36.936,-22.974 -40.061,-21.008 -66.737,-53.974 -78.916,-97.539 -5.054,-18.073 -11.673,-35.765 -19.952,-53.053 -41.204,-86.008 -110.768,-157.863 -195.569,-193.183 H 0 Z"
             style="fill:#22bec9;fill-opacity:1;fill-rule:evenodd;stroke:none"
             id="path42694" />
        </g>
        <g
           id="g42696"
           transform="translate(1201.7344,929.1499)">
          <path
             d="m 0,0 c -15.906,9.959 -32.916,18.446 -50.919,25.376 -41.718,16.061 -72.454,44.25 -92.045,84.433 -7.774,15.946 -17.225,31.051 -28.174,45.009 -12.248,15.617 -25.177,30.716 -38.811,45.14 -22.961,24.291 -48.647,47.407 -76.621,67.139 h -338.959 c -37.733,-29.929 -82.051,-41.877 -129.945,-35.02 -37.277,5.337 -75.245,2.888 -111.469,-7.45 -52.107,-14.87 -97.853,-45.05 -133.774,-85.417 -23.447,-26.35 -50.845,-43.048 -85.003,-51.82 -44.623,-11.461 -82.297,-35.174 -112.791,-66.39 v -949.022 c 1.185,-1.138 2.38,-2.27 3.579,-3.392 h 558.788 c 33.352,11.639 69.097,12.2 104.764,1.306 1.466,-0.448 2.932,-0.884 4.405,-1.306 h 158.336 c 96.641,27.765 176.673,104.491 221.712,198.51 7.871,16.432 14.294,33.501 19.198,51.046 13.091,46.829 42.002,82.559 85.067,105.139 15.086,7.911 29.317,17.136 42.662,27.463 z"
             style="fill:#2cc6d1;fill-opacity:1;fill-rule:evenodd;stroke:none"
             id="path42698" />
        </g>
        <g
           id="g42700"
           transform="translate(77.0142,582.9053)">
          <path
             d="m 0,0 c -52.719,42.701 -58.92,116.086 -44.636,178.31 15.414,67.127 59.109,140.373 135.661,145.177 4.884,0.306 9.646,0.328 14.281,0.09 33.299,-1.733 62.741,14.756 78.668,44.05 50.966,93.748 143.763,118.455 226.261,75.39 45.978,-24 102.67,-7.536 128.634,37.364 15.809,27.341 38.413,50.083 69.392,63.63 101.38,44.327 195.205,-41.803 252.93,-115.407 9.131,-11.643 16.238,-24.667 21.122,-38.632 2.716,-7.772 4.66,-15.389 5.959,-22.914 8.549,-49.475 46.501,-86.176 96.235,-93.064 53.986,-7.472 102.789,-33.122 133.438,-84.363 2.447,-4.087 4.687,-8.302 6.775,-12.601 V -10.739 c -25.214,-63.862 -73.932,-117.056 -137.662,-130.289 -54.618,-11.341 -93.252,-56.938 -95.47,-112.679 -1.1,-27.642 -6.622,-54.949 -19.688,-82.225 -40.765,-85.097 -125.96,-158.761 -226.32,-140.029 -56.27,10.502 -99.181,48.425 -124.425,98.724 -2.472,4.924 -4.902,10.011 -7.307,15.217 -4.859,10.5 -15.749,16.246 -27.158,14.326 -11.409,-1.919 -19.82,-10.915 -20.975,-22.426 -4.436,-44.3 -18.391,-84.775 -57.474,-118.467 -85.192,-73.44 -219.005,-94.198 -324.271,-57.048 -105.794,37.34 -194.453,184.434 -126.54,288.57 8.297,12.72 18.531,23.997 30.378,33.496 3.816,3.059 7.696,5.878 11.637,8.466 19.218,12.628 26.442,36.715 17.35,57.834 -5.824,13.525 -9.374,27.864 -10.564,42.566 -1.867,23.123 1.85,43.304 8.605,62.865 C 21.411,-32.805 15.65,-12.674 0,0"
             style="fill:#1dabb5;fill-opacity:1;fill-rule:evenodd;stroke:none"
             id="path42702" />
        </g>
        <g
           id="g42704"
           transform="translate(82.2246,589.3369)">
          <path
             d="m 0,0 c 18.333,-14.846 25.154,-38.674 17.45,-60.974 -6.761,-19.575 -9.858,-38.723 -8.175,-59.494 1.113,-13.781 4.446,-27.258 9.912,-39.959 10.68,-24.799 2.161,-53.196 -20.404,-68.025 -3.794,-2.492 -7.466,-5.168 -11.008,-8.006 -11.152,-8.944 -20.811,-19.586 -28.62,-31.563 -12.262,-18.798 -19.511,-39.731 -21.709,-62.055 -4.728,-47.977 14.166,-96.782 42.196,-135.006 25.252,-34.433 61.267,-64.847 101.873,-79.178 49.498,-17.471 104.342,-21.428 156.163,-14.052 57.909,8.242 115.377,31.141 159.946,69.564 35.483,30.589 50.09,67.543 54.645,113.022 1.524,15.223 12.749,27.224 27.836,29.763 15.053,2.534 29.638,-5.158 36.046,-19.011 2.325,-5.029 4.709,-10.032 7.194,-14.983 24.091,-48.002 64.872,-84.278 118.544,-94.296 96.372,-17.987 178.153,53.68 217.333,135.467 12.033,25.119 17.781,51.24 18.883,78.975 2.368,59.538 43.72,108.343 102.06,120.459 12.022,2.495 23.634,6.538 34.651,11.944 50.292,24.681 87.369,77.194 104.694,135.561 v 140.923 c -3.659,10.465 -8.262,20.482 -13.88,29.877 -28.349,47.394 -73.727,72.972 -127.469,80.41 -53.301,7.381 -94.096,46.829 -103.257,99.854 -1.269,7.346 -3.156,14.555 -5.618,21.59 -4.578,13.094 -11.257,25.339 -19.82,36.254 -55.345,70.571 -146.061,155.363 -243.1,112.934 -28.505,-12.466 -50.104,-33.493 -65.541,-60.19 -28.174,-48.726 -89.735,-66.604 -139.631,-40.558 -30.676,16.013 -65.415,23.347 -99.787,17.572 -51.905,-8.725 -90.835,-44.447 -115.37,-89.576 -8.409,-15.469 -20.659,-28.314 -36.053,-36.932 -15.391,-8.618 -32.742,-12.347 -50.319,-11.436 -4.441,0.234 -8.895,0.194 -13.331,-0.082 C 13.935,304.248 -27.179,233.606 -41.776,170.023 -55.283,111.208 -50.19,40.653 0,0"
             style="fill:#22b3bd;fill-opacity:1;fill-rule:evenodd;stroke:none"
             id="path42706" />
        </g>
        <g
           id="g42708"
           transform="translate(179.7412,461.5605)">
          <path
             d="m 0,0 c -19.185,41.816 40.568,89.68 30.589,134.593 -6.771,30.466 -48.338,39.532 -73.415,58.115 -54.317,40.257 25.709,250.692 79.534,113.18 13.195,-33.716 81.455,-43.954 107.06,-18.351 31.796,31.796 -6.594,92.478 9.176,134.587 34.168,91.254 104.248,87.876 159.063,18.357 19.167,-24.314 31.504,-58.007 27.527,-88.71 -9.326,-72.011 48.646,-71.463 110.122,0 36.374,42.289 42.199,104.148 51.999,159.062 16.102,90.224 82.258,110.782 183.533,-18.353 30.208,-38.518 -25.271,-106.904 3.06,-146.825 26.686,-37.604 85.799,-48.712 131.53,-42.824 202.215,26.023 128.273,-227.798 36.708,-232.475 -53.107,-2.713 -128.569,55.797 -159.063,12.235 -49.171,-70.246 24.808,-179.617 -12.235,-256.945 -46.592,-97.263 -141.573,-123.369 -183.533,-39.768 -23.113,46.056 -40.051,95.977 -70.355,137.65 -56.483,77.682 -126.065,47.775 -152.944,-30.588 -20.831,-60.73 14.983,-147.73 -33.646,-189.65 -59.545,-51.332 -158.341,-65.93 -232.475,-39.767 -53.334,18.825 -110.426,102.513 -79.531,149.887 41.086,62.997 191.662,-9.574 217.18,61.178 C 171.987,-64.133 27.166,-59.209 0,0"
             style="fill:#13878f;fill-opacity:1;fill-rule:evenodd;stroke:none"
             id="path42710" />
        </g>
        <g
           id="g42712"
           transform="translate(188.3643,465.5156)">
          <path
             d="m 0,0 c 10.326,-22.506 44.056,-37.605 65.484,-47.093 17.253,-7.642 35.349,-14.797 51.778,-24.064 13.865,-7.823 28.821,-18.58 33.939,-34.415 2.908,-8.982 2.156,-18.217 -1.018,-27.014 -28.587,-79.265 -181.105,-6.33 -218.157,-63.142 -1.817,-2.786 -3.283,-5.767 -4.398,-8.899 -9.815,-27.579 7.809,-62.515 24.428,-83.885 13.596,-17.49 33.531,-35.498 54.713,-42.973 70.524,-24.891 165.868,-11.357 223.124,38.005 5.407,4.66 9.774,10.133 13.174,16.407 13.622,25.132 10.878,63.428 10.179,91.285 -0.644,25.641 -0.896,53.326 7.515,77.852 30.38,88.567 110.125,114.864 169.588,33.087 30.905,-42.498 47.793,-92.413 71.162,-138.973 10.635,-21.19 27.368,-39.371 51.544,-43.882 21.425,-4.001 42.888,3.839 60.379,15.919 23.887,16.497 42.151,41.632 54.578,67.572 2.223,4.643 4.025,9.468 5.441,14.416 8.922,31.187 2.572,68.285 -2.745,99.693 -7.974,47.068 -19.2,102.002 10.323,144.178 4.844,6.921 11.068,12.335 18.799,15.8 13.654,6.124 29.297,4.979 43.586,2.029 15.608,-3.223 31.021,-8.747 46.135,-13.781 17.307,-5.763 39.468,-13.186 57.827,-12.25 17.566,0.9 33.226,12.96 44.446,25.636 14.847,16.767 25.78,38.539 32.115,59.93 8.675,29.272 10.838,65.76 -5.404,92.914 -21.847,36.528 -68.054,40.021 -106.167,35.114 -47.676,-6.134 -110.987,5.183 -140.477,46.744 -2.938,4.138 -5.221,8.653 -6.849,13.458 -7.146,21.104 -0.926,45.771 4.175,66.709 4.012,16.474 10.659,40.605 4.887,57.12 -1.166,3.335 -2.821,6.395 -5.001,9.175 -21.21,27.042 -49.399,58.701 -79.448,76.134 -15.055,8.732 -34.586,16.036 -51.638,8.58 -22.267,-9.735 -31.758,-40.396 -35.647,-62.176 -9.923,-55.596 -15.864,-119.074 -54.147,-163.578 -15.962,-18.555 -36.26,-37.842 -58.361,-48.85 -15.221,-7.583 -34.676,-12.546 -50.249,-3.032 -19.641,12.003 -20.738,38.975 -18.107,59.286 3.669,28.333 -8.16,59.53 -25.571,81.614 -18.856,23.916 -50.06,51.893 -83.173,47.108 -31.032,-4.486 -49.575,-36.252 -59.559,-62.915 -5.883,-15.707 -2.823,-36.06 -0.299,-52.236 4.436,-28.458 11.821,-62.86 -11.052,-85.732 -29.947,-29.946 -106.641,-19.178 -122.602,21.603 -4.404,11.246 -17.336,40.984 -33.145,39.993 -9.48,-0.597 -18.387,-11.645 -23.141,-18.869 -9.022,-13.711 -15.285,-30.935 -18.944,-46.867 -3.445,-15.005 -5.277,-31.895 -3.306,-47.23 1.312,-10.203 4.795,-22.689 13.487,-29.129 25.576,-18.957 69.059,-27.839 77.025,-63.683 0.744,-3.355 1.175,-6.765 1.309,-10.201 C 33.342,102.098 23.718,82.145 14.869,64.307 7.45,49.356 -4.227,28.043 -2.843,10.956 -2.534,7.135 -1.603,3.488 0,0"
             style="fill:#168d96;fill-opacity:1;fill-rule:evenodd;stroke:none"
             id="path42714" />
        </g>
        <g
           id="g42716"
           transform="translate(375.4219,292.5605)">
          <path
             d="m 0,0 c 1.961,2.949 5.471,4.225 8.867,3.224 3.398,-1.001 5.655,-3.974 5.708,-7.513 0.047,-3.273 0.117,-6.552 0.201,-9.836 0.309,-12.247 3.042,-60.067 -5.521,-67.448 -43.23,-37.268 -119.35,-47.194 -172.428,-28.463 -8.396,2.963 -20.654,13.48 -30.646,25.608 -5.292,6.425 -6.328,14.801 -2.758,22.32 3.567,7.517 10.714,12.012 19.033,11.973 7.663,-0.038 14.458,-0.266 18.158,-0.379 48.691,-1.481 102.565,-4.169 141.804,30.393 C -10.794,-14.142 -4.921,-7.391 0,0 m -93.696,169.789 c 41.669,-18.162 88.832,-37.392 105.585,-83.123 1.167,-3.189 4.06,-5.216 7.458,-5.218 3.403,-0.005 6.298,2.019 7.473,5.212 45.624,124.073 175.114,155.775 258.068,41.692 33.367,-45.891 24.106,-39.577 49.141,-89.456 40.26,-80.206 110.357,-2.208 98.913,65.367 -10.686,63.111 -20.621,125.799 18.9,182.258 10.171,14.533 23.676,25.966 39.886,33.235 42.211,18.931 85.491,3.95 126.425,-9.691 26.927,-8.969 56.092,4.59 66.589,30.957 1.226,3.079 2.192,5.82 2.831,7.981 4.185,14.119 7.831,38.425 -0.231,51.905 -8.909,14.898 -41.861,12.257 -55.468,10.507 -67.256,-8.658 -147.907,10.106 -188.984,67.986 -5.823,8.207 -10.388,17.194 -13.614,26.723 -10.172,30.026 -5.733,58.588 1.17,88.087 5.324,22.755 -0.679,44.795 -16.813,61.705 -0.251,0.264 -0.505,0.528 -0.759,0.792 -8.128,8.479 -19.566,11.453 -30.796,8.016 -11.231,-3.441 -19.04,-12.313 -21.027,-23.888 C 351.184,583.417 340.377,527.811 300.152,481.051 259.923,434.277 189.084,380.117 125.741,418.821 87.23,442.352 78.035,486.827 83.447,528.597 c 1.837,14.192 -6.363,32.269 -14.956,43.168 -1.553,1.969 -4.446,5.309 -8.001,9.013 -6.616,6.891 -15.503,9.736 -24.886,7.971 -9.384,-1.762 -16.63,-7.642 -20.293,-16.459 -0.345,-0.836 -0.639,-1.573 -0.876,-2.188 -1.202,-5.589 1.362,-21.082 2.223,-26.619 7.419,-47.565 11.999,-92.52 -25.5,-130.019 -25.643,-25.645 -64.942,-35.451 -102.864,-31.291 -6.248,0.685 -11.979,-2.308 -14.985,-7.829 -3.01,-5.521 -2.418,-11.956 1.548,-16.838 9.071,-11.162 15.887,-24.388 19.514,-40.7 1.411,-6.353 2.237,-12.825 2.496,-19.327 0.931,-23.619 -5.616,-44.898 -14.776,-65.678 -5.233,-11.869 -5.492,-23.953 -0.775,-36.036 4.718,-12.083 13.097,-20.793 24.988,-25.976"
             style="fill:#0f6c73;fill-opacity:1;fill-rule:evenodd;stroke:none"
             id="path42718" />
        </g>
        <g
           id="g42720"
           transform="translate(381.1123,288.7744)">
          <path
             d="m 0,0 c -5.293,-7.949 -11.59,-15.155 -18.754,-21.466 -40.935,-36.053 -95.695,-33.64 -146.53,-32.095 -5.996,0.182 -11.981,0.346 -17.98,0.373 -5.671,0.028 -10.398,-2.944 -12.83,-8.065 -2.432,-5.123 -1.747,-10.664 1.86,-15.04 6.046,-7.341 18.567,-20.306 27.646,-23.51 50.757,-17.913 124.329,-8.463 165.582,27.089 1.305,1.529 2.345,7.802 2.619,9.783 0.906,6.502 1.16,13.291 1.255,19.85 0.164,10.926 -0.344,21.673 -0.618,32.57 C 2.168,-7.21 2.096,-3.906 2.049,-0.605 2.041,-0.058 1.77,0.298 1.245,0.453 0.722,0.607 0.301,0.453 0,0 m 15.352,572.014 c -0.401,-2.749 0.249,-8.285 0.54,-10.819 0.493,-4.312 1.165,-8.586 1.832,-12.872 7.861,-50.422 11.745,-96.743 -27.422,-135.908 -3.376,-3.377 -6.991,-6.512 -10.799,-9.392 -27.465,-20.766 -63.916,-27.562 -97.646,-23.86 -3.493,0.383 -6.557,-1.217 -8.237,-4.304 -1.681,-3.084 -1.362,-6.527 0.854,-9.255 10.455,-12.865 17.285,-27.358 20.88,-43.528 1.498,-6.751 2.38,-13.632 2.653,-20.542 0.961,-24.299 -5.658,-46.718 -15.351,-68.706 -4.493,-10.191 -4.713,-20.415 -0.662,-30.79 4.055,-10.386 11.129,-17.741 21.351,-22.197 43.416,-18.922 91.632,-38.891 109.271,-87.037 0.184,-0.5 0.518,-0.735 1.05,-0.735 0.533,0 0.862,0.237 1.046,0.738 11.137,30.28 28.453,58.661 52.639,80.268 21.105,18.849 46.717,31.774 74.924,35.418 25.769,3.328 51.245,-1.436 74.53,-12.806 27.467,-13.407 50.07,-34.979 67.922,-59.529 10.198,-14.027 20.805,-28.61 28.331,-44.3 2.812,-5.865 5.336,-11.891 7.98,-17.836 4.241,-9.542 8.725,-18.941 13.41,-28.274 6.962,-13.87 19.157,-31.059 36.705,-30.228 16.335,0.777 30.061,16.268 37.606,29.427 10.468,18.256 15.285,41.116 11.755,61.959 -6.335,37.403 -12.837,76.377 -7.894,114.322 3.481,26.703 12.454,50.889 27.93,73 10.879,15.541 25.359,27.778 42.689,35.552 44.149,19.798 88.374,4.887 131.387,-9.442 23.481,-7.824 48.918,3.998 58.073,26.997 0.964,2.417 1.89,4.901 2.629,7.395 3.6,12.146 7.294,35.025 0.458,46.456 -6.669,11.147 -37.833,8.638 -48.73,7.234 -25.628,-3.295 -52.195,-2.653 -77.622,1.942 -45.976,8.305 -90.236,30.016 -117.808,68.87 -6.201,8.737 -11.08,18.336 -14.516,28.487 -10.554,31.162 -6.317,60.618 0.989,91.836 4.787,20.453 -0.602,40.23 -15.103,55.427 -0.249,0.259 -0.497,0.523 -0.746,0.782 -6.331,6.599 -15.115,8.887 -23.86,6.209 -8.763,-2.684 -14.74,-9.475 -16.293,-18.506 C 351.815,583.634 340.51,527.883 299.647,480.376 256.764,430.525 182.97,376.148 116.485,416.774 75.715,441.687 65.19,488.591 70.976,533.26 c 1.583,12.227 -6.134,28.662 -13.542,38.056 -2.318,2.94 -4.979,5.818 -7.568,8.516 -5.014,5.223 -11.575,7.321 -18.69,5.987 -7.114,-1.339 -12.466,-5.678 -15.24,-12.367 -0.199,-0.478 -0.395,-0.955 -0.584,-1.438"
             style="fill:#127178;fill-opacity:1;fill-rule:evenodd;stroke:none"
             id="path42722" />
        </g>
        <g
           id="g42724"
           transform="translate(344.0415,502.3604)">
          <path
             d="m 0,0 c 7.552,-3.759 14.926,-7.682 22.06,-11.855 12.048,-7.045 26.817,-5.165 36.718,4.673 77.901,77.396 196.711,81.269 282.633,-7.376 8.483,-8.758 20.571,-11.565 32.047,-7.445 11.476,4.117 19.018,13.97 20.004,26.12 2.993,37.024 13.848,72.938 38.657,108.376 8.635,12.339 18.814,23.324 30.312,32.699 7.344,5.987 11.209,14.157 11.175,23.634 -0.032,9.477 -3.953,17.619 -11.342,23.554 -13.288,10.679 -25.358,22.979 -35.826,36.951 -5.71,7.623 -13.773,11.827 -23.295,12.141 -9.52,0.313 -17.841,-3.349 -24.042,-10.58 -0.092,-0.107 -0.184,-0.214 -0.276,-0.321 -61.962,-72.036 -161.622,-131.367 -254.23,-74.779 -5.04,3.081 -9.802,6.377 -14.288,9.872 -12.34,9.609 -29.783,8.332 -40.591,-2.972 -1.001,-1.05 -2.027,-2.096 -3.067,-3.136 C 50.304,143.211 30.788,130.985 9.648,122.664 -2.738,117.789 -10.271,106.05 -9.544,92.76 -9.497,91.889 -9.455,91.015 -9.42,90.141 -8.665,71 -11.08,52.764 -15.813,34.985 -19.561,20.9 -13.049,6.492 0,0"
             style="fill:#085b61;fill-opacity:1;fill-rule:evenodd;stroke:none"
             id="path42726" />
        </g>
        <g
           id="g42728"
           transform="translate(346.8242,507.9561)">
          <path
             d="m 0,0 c 7.603,-3.781 15.105,-7.767 22.434,-12.053 9.601,-5.613 21.264,-4.128 29.155,3.709 32.324,32.117 73.41,53.677 118.875,59.084 66.007,7.852 127.132,-19.579 172.652,-66.542 6.776,-6.99 16.282,-9.201 25.448,-5.915 9.166,3.291 15.098,11.038 15.882,20.746 3.33,41.171 16.032,77.545 39.767,111.455 8.891,12.703 19.464,24.158 31.485,33.957 5.88,4.797 8.9,11.177 8.872,18.767 -0.027,7.59 -3.09,13.95 -9.004,18.705 -13.838,11.119 -26.267,23.862 -36.914,38.074 -4.573,6.103 -10.874,9.389 -18.496,9.638 -7.592,0.252 -14.146,-2.633 -19.091,-8.398 -0.094,-0.11 -0.189,-0.22 -0.283,-0.329 -13.604,-15.817 -28.588,-30.594 -44.746,-43.8 -34.405,-28.117 -76.33,-50.745 -121.183,-54.979 -34.268,-3.236 -66.975,4.822 -96.301,22.74 -5.143,3.146 -10.112,6.572 -14.869,10.276 -9.761,7.602 -23.681,6.582 -32.229,-2.36 -1.046,-1.09 -2.101,-2.171 -3.167,-3.239 C 51.469,132.716 31.241,119.946 9.156,111.25 -0.652,107.392 -6.661,98.027 -6.083,87.505 -6.034,86.602 -5.994,85.697 -5.956,84.792 -5.192,65.449 -7.582,46.456 -12.553,27.778 -15.538,16.569 -10.385,5.168 0,0"
             style="fill:#0b6066;fill-opacity:1;fill-rule:evenodd;stroke:none"
             id="path42730" />
        </g>
        <g
           id="g42732"
           transform="translate(402.6846,545.2617)">
          <path
             d="m 0,0 c 82.116,61.899 186.729,60.938 269.746,3.308 6.52,-4.528 14.129,-5.541 21.607,-2.875 7.478,2.664 12.73,8.259 14.921,15.889 7.142,24.906 18.09,48.373 33.116,70.734 6.67,9.927 5.045,23.041 -3.847,31.037 -8.892,8.001 -22.105,8.23 -31.271,0.548 C 232.54,58.516 138.541,26.74 50.19,78.065 40.173,83.885 28.214,82.986 19.183,75.725 8.474,67.109 -3.099,59.644 -15.321,53.353 -24.291,48.735 -29.702,40.321 -30.183,30.242 -30.384,26.028 -30.708,21.826 -31.151,17.639 -31.993,9.738 -28.278,2.514 -21.366,-1.402 -14.45,-5.317 -6.345,-4.785 0,0"
             style="fill:#02282b;fill-opacity:1;fill-rule:evenodd;stroke:none"
             id="path42734" />
        </g>
        <g
           id="g42736"
           transform="translate(576.0513,594.2764)">
          <path
             d="m 0,0 c 34.619,-5.761 68.543,-19.522 99.592,-41.076 5.019,-3.484 10.747,-4.25 16.502,-2.198 5.766,2.055 9.706,6.252 11.394,12.137 7.426,25.884 18.845,49.983 33.857,72.325 5.104,7.592 3.866,17.579 -2.937,23.701 -6.803,6.121 -16.867,6.295 -23.883,0.416 C 96.242,33.217 49.871,7.582 0,0 m -66.072,1.269 c -20.815,4.132 -40.869,11.83 -59.938,22.907 -7.973,4.63 -17.45,3.923 -24.639,-1.86 -11.003,-8.849 -22.907,-16.526 -35.458,-22.989 -7.179,-3.696 -11.428,-10.303 -11.814,-18.368 -0.204,-4.319 -0.538,-8.631 -0.994,-12.93 -0.599,-5.668 2.004,-10.731 6.961,-13.542 4.941,-2.798 10.662,-2.422 15.197,0.998 34.004,25.636 71.917,40.801 110.685,45.784"
             style="fill:#033336;fill-opacity:1;fill-rule:evenodd;stroke:none"
             id="path42738" />
        </g>
      </g>
    </g>
  </g>
</svg>
